# xmcd CD database file
#
# Track frame offsets:
#	182
#	11102
#	21765
#	35107
#	46080
#	56217
#	70212
#	80457
#	92847
#	103875
#	116307
#	126082
#	137400
#	148687
#	158942
#	169790
#	181147
#	190805
#	202825
#	215265
#
# Disc length: 3024 seconds
#
# Revision: 2
# Processed by: cddbd v1.5.1PL0 Copyright (c) Steve Scherf et al.
# Submitted via: CDex 1.51
#
DISCID=160bce14
DTITLE=HankThompson - Capitol Collector's Series
DYEAR=1989
DGENRE=Country
TTITLE0=Humpty Dumpty Heart
TTITLE1=Whoa, Sailor
TTITLE2=The Wild Side OF Life
TTITLE3=Waiting In The Lobby Of Your Heart
TTITLE4=Rub-A-Dub-Dub
TTITLE5=Yesterday's Girl
TTITLE6=Wake Up, Irene
TTITLE7=Breakin' The Rules
TTITLE8=Honky Tonk Girl
TTITLE9=We've Gone Too Far
TTITLE10=The New Green Light
TTITLE11=Breakin' In Another Heart
TTITLE12=Don't Take It Out On Me
TTITLE13=The Blackboard Of My Heart
TTITLE14=Rockin' In The Congo
TTITLE15=Squaws Along The Yukon
TTITLE16=A Six Pack To Go
TTITLE17=She's Just A Whole Lot Like You
TTITLE18=Oklahoma Hills
TTITLE19=Hangover Tavern
EXTD=YEAR: 1989
EXTT0=
EXTT1=
EXTT2=
EXTT3=
EXTT4=
EXTT5=
EXTT6=
EXTT7=
EXTT8=
EXTT9=
EXTT10=
EXTT11=
EXTT12=
EXTT13=
EXTT14=
EXTT15=
EXTT16=
EXTT17=
EXTT18=
EXTT19=
PLAYORDER=
